<?xml version="1.0" encoding="UTF-8" standalone="no"?>
<svg
   xmlns:dc="http://purl.org/dc/elements/1.1/"
   xmlns:cc="http://creativecommons.org/ns#"
   xmlns:rdf="http://www.w3.org/1999/02/22-rdf-syntax-ns#"
   xmlns:svg="http://www.w3.org/2000/svg"
   xmlns="http://www.w3.org/2000/svg"
   xmlns:sodipodi="http://sodipodi.sourceforge.net/DTD/sodipodi-0.dtd"
   xmlns:inkscape="http://www.inkscape.org/namespaces/inkscape"
   version="1.1"
   viewBox="0 0 210 190"
   width="210mm"
   height="210mm"
   id="logo"
   sodipodi:docname="combined-logo-sq.svg"
   inkscape:version="1.0.1 (c497b03c, 2020-09-10)">
  <metadata
     id="metadata931">
    <rdf:RDF>
      <cc:Work
         rdf:about="">
        <dc:format>image/svg+xml</dc:format>
        <dc:type
           rdf:resource="http://purl.org/dc/dcmitype/StillImage" />
        <dc:title></dc:title>
      </cc:Work>
    </rdf:RDF>
  </metadata>
  <defs
     id="defs929" />
  <sodipodi:namedview
     inkscape:document-rotation="0"
     pagecolor="#ffffff"
     bordercolor="#666666"
     borderopacity="1"
     objecttolerance="10"
     gridtolerance="10"
     guidetolerance="10"
     inkscape:pageopacity="0"
     inkscape:pageshadow="2"
     inkscape:window-width="1280"
     inkscape:window-height="755"
     id="namedview927"
     showgrid="false"
     inkscape:zoom="0.68917659"
     inkscape:cx="408.45845"
     inkscape:cy="392.49737"
     inkscape:window-x="0"
     inkscape:window-y="23"
     inkscape:window-maximized="0"
     inkscape:current-layer="g1491" />
  <g
     transform="matrix(0.6389234,0,0,0.61512194,-7.3009908,35.036887)"
     id="pentagons">
    <path
       d="M 69.231583,31.943134 100.7159,32.002614 84.788854,82.014173 42.507525,113.1127 32.168286,92.893368 Z"
       style="opacity:1;fill:#ffd700;fill-opacity:1;fill-rule:nonzero;stroke:#000000;stroke-width:3;stroke-linejoin:round;stroke-miterlimit:4;stroke-dasharray:none;stroke-opacity:1"
       id="topleft" />
    <path
       d="M 144.23976,32.122487 100.7159,32.002616 84.788854,82.014173 127.43091,112.61616 169.71224,81.517635 Z"
       style="opacity:1;fill:#ffffff;fill-opacity:1;fill-rule:nonzero;stroke:#000000;stroke-width:3;stroke-linejoin:round;stroke-miterlimit:4;stroke-dasharray:none;stroke-opacity:1"
       id="topright" />
    <path
       d="m 67.980004,162.50785 43.523836,0.11987 15.92707,-50.01156 L 84.788854,82.014173 42.507525,113.1127 Z"
       style="opacity:1;fill:#000000;fill-opacity:1;fill-rule:nonzero;stroke:#000000;stroke-width:3;stroke-linejoin:round;stroke-miterlimit:4;stroke-dasharray:none;stroke-opacity:1"
       id="bottomleft" />
    <path
       d="m 142.98818,162.6872 -31.48434,-0.0595 15.92707,-50.01156 42.28133,-31.098526 10.33924,20.219316 z"
       style="opacity:1;fill:#ffd700;fill-opacity:1;fill-rule:nonzero;stroke:#000000;stroke-width:3;stroke-linejoin:round;stroke-miterlimit:4;stroke-dasharray:none;stroke-opacity:1"
       id="bottomright" />
  </g>
  <g
     id="g1491"
     transform="matrix(1,0,0,1.0152682,-5.5097268,36.10413)">
    <path
       id="path1486"
       style="opacity:1;fill:#ffffff;fill-opacity:1;stroke:none;stroke-width:4.35303;stroke-opacity:1"
       d="m 142.17737,24.649047 c -4.23379,0.07809 -8.43094,1.163484 -12.22422,3.03204 -2.09605,1.042824 -4.0841,2.327291 -5.82068,3.902422 -1.43507,1.385922 -2.71235,2.925506 -3.9418,4.493789 -0.87112,1.138679 -1.74333,2.288043 -2.43072,3.549743 -0.30401,0.58943 -0.64456,1.271119 -0.4281,1.946039 0.22989,0.671042 0.91098,1.019143 1.51477,1.296376 0.90618,0.398426 1.85788,0.683038 2.75564,1.102411 3.89679,1.731544 7.73632,3.5893 11.55624,5.483479 1.17385,0.596627 2.36615,1.183801 3.49724,1.881478 0.17989,0.116112 0.34616,0.22697 0.5302,0.371036 0.10525,0.100208 0.26361,0.191548 0.29766,0.337965 -0.18085,0.814507 -0.52062,1.583598 -0.82563,2.357356 -0.4995,1.18555 -1.00804,2.373206 -1.65019,3.489833 -3.06112,-1.425705 -6.07552,-2.949247 -9.10616,-4.437811 -2.47472,-1.208387 -4.95492,-2.421102 -7.5388,-3.381926 -1.90103,-0.704056 -3.91269,-1.209151 -5.95369,-1.133498 -1.66118,0.05392 -3.30113,0.373245 -4.91625,0.746892 -1.94265,0.462121 -3.82903,1.216226 -5.47982,2.350349 -1.68883,1.149903 -3.174917,2.568744 -4.584106,4.040677 -2.038549,2.152396 -3.748979,4.65687 -4.75705,7.458242 -1.038426,2.836542 -1.432179,5.904317 -1.143301,8.911275 0.479827,5.141084 2.749684,10.084286 6.278755,13.846127 2.255602,2.39745 5.062502,4.312856 8.195832,5.355428 1.30371,0.392848 2.67726,0.435997 4.02727,0.510784 3.54829,0.151397 7.10056,0.174114 10.65133,0.229319 11.19133,0.13565 22.3827,0.285496 33.57484,0.332725 6.74102,0.02536 13.48356,-0.02034 20.22102,-0.249153 2.44256,-0.08799 4.88923,-0.123526 7.32561,-0.329309 1.06402,-0.093 2.1388,-0.286932 3.09474,-0.785339 1.92357,-0.910134 3.67122,-2.231289 4.95705,-3.937074 1.4879,-1.954331 2.37898,-4.30577 2.8605,-6.698995 0.39433,-1.99797 0.30432,-4.09094 -0.29386,-6.039578 -0.71232,-2.334503 -1.94206,-4.532159 -3.68612,-6.252784 -2.21843,-2.220521 -5.23723,-3.644993 -8.37675,-3.852 -1.0172,-0.05872 -2.03969,-0.02661 -3.0543,0.06152 -1.05048,0.0957 -2.12786,0.385291 -2.93842,1.09293 -1.00761,0.873059 -1.64295,2.071656 -2.30047,3.209801 -1.03479,1.818785 -2.05599,3.650974 -3.2481,5.373078 -0.23516,0.320088 -0.466,0.653273 -0.76216,0.918867 -0.83268,-0.497965 -1.57621,-1.12953 -2.32655,-1.740972 -0.8728,-0.739899 -1.75208,-1.482032 -2.51915,-2.333715 -0.12072,-0.116385 0.0822,-0.270227 0.1142,-0.397944 0.55802,-1.031317 1.29589,-1.95141 1.85644,-2.981613 1.29703,-2.295779 2.3233,-4.743863 3.07821,-7.269517 0.90136,-3.012691 1.11793,-6.191986 0.95791,-9.320535 -0.15214,-2.642185 -0.56436,-5.292897 -1.47818,-7.785603 -1.14068,-3.020369 -2.8488,-5.804178 -4.85122,-8.327424 -1.92118,-2.396062 -4.13345,-4.590637 -6.70669,-6.283349 -1.87656,-1.1938 -3.93153,-2.083186 -6.02602,-2.817688 -1.85435,-0.642353 -3.77684,-1.116711 -5.73896,-1.255432 -0.74422,-0.06093 -1.49143,-0.08048 -2.23799,-0.07072 z" />
    <path
       style="fill:#000000;stroke-width:0.585052"
       d="m 103.44996,98.110195 c -16.373916,-4.33141 -23.404486,-24.4645 -16.058336,-39.986957 3.96658,-8.381382 10.97272,-13.758624 20.772606,-15.943041 1.10673,-0.246704 1.65608,-0.906105 2.14541,-2.575266 0.36176,-1.234017 1.70458,-3.892575 2.984,-5.907912 11.95857,-18.836902 37.43563,-21.69634 52.64184,-5.908301 6.729,6.986462 10.08892,15.178352 10.08892,24.597967 v 4.742737 l 4.20385,0.278818 c 7.61896,0.505319 14.08829,4.813944 17.41447,11.598152 1.54997,3.161453 2.35003,3.859683 2.35003,9.589133 0,5.78423 -0.46787,6.0265 -2.01942,8.92047 -2.13053,3.97392 -5.90382,8.09635 -9.57565,10.1171 l -3.92961,1.14868 -38.08195,0.57937 -37.66114,0.14448 z m 81.20695,-6.9728 c 3.4805,-1.63071 5.07177,-3.24601 6.68882,-6.7898 4.74132,-10.39072 -3.94297,-21.631885 -14.86434,-19.240693 -1.9921,0.436176 -2.81308,0.935287 -3.10472,1.887525 -0.51366,1.677139 -4.82114,8.734508 -5.31701,8.711348 -0.20894,-0.01 -1.50779,-1.02539 -2.88615,-2.25695 l -2.50615,-2.23922 1.74972,-2.679343 c 2.68572,-4.112701 4.20769,-8.694544 4.54711,-13.688945 0.55292,-8.135237 -1.83788,-14.889325 -7.47489,-21.117017 -9.68193,-10.696443 -24.93586,-11.745997 -36.51652,-2.512537 -2.90095,2.312974 -7.64948,8.713073 -7.64948,10.310019 0,0.41457 1.18779,1.062859 2.63951,1.440648 2.11711,0.550931 17.04999,7.797267 18.04664,8.757314 0.14083,0.135555 -0.44098,1.714934 -1.29271,3.509719 l -1.54863,3.263242 -7.91529,-4.11096 c -9.32839,-4.844892 -12.86489,-5.78764 -18.05931,-4.814181 -4.52678,0.848337 -7.4109,2.358288 -10.844466,5.677484 -3.3474,3.235894 -5.46651,7.201199 -6.34844,11.879304 -1.99508,10.582743 5.22678,22.131723 15.386366,24.605423 1.19191,0.29022 18.48252,0.54865 38.42363,0.57433 35.31475,0.0454 36.32382,0.0151 38.84631,-1.16671 z"
       id="path913"
       sodipodi:nodetypes="ssssssscssssscccssssssscsssssssscssssscs" />
  </g>
</svg>
