<?xml version="1.0" encoding="UTF-8" standalone="no"?>
<svg
   xmlns:dc="http://purl.org/dc/elements/1.1/"
   xmlns:cc="http://creativecommons.org/ns#"
   xmlns:rdf="http://www.w3.org/1999/02/22-rdf-syntax-ns#"
   xmlns:svg="http://www.w3.org/2000/svg"
   xmlns="http://www.w3.org/2000/svg"
   xmlns:sodipodi="http://sodipodi.sourceforge.net/DTD/sodipodi-0.dtd"
   xmlns:inkscape="http://www.inkscape.org/namespaces/inkscape"
   version="1.1"
   id="svg901"
   width="200"
   height="200"
   viewBox="0 0 200 200"
   sodipodi:docname="opencpu-logo.svg"
   inkscape:version="1.0.1 (c497b03c, 2020-09-10)">
  <metadata
     id="metadata907">
    <rdf:RDF>
      <cc:Work
         rdf:about="">
        <dc:format>image/svg+xml</dc:format>
        <dc:type
           rdf:resource="http://purl.org/dc/dcmitype/StillImage" />
        <dc:title />
      </cc:Work>
    </rdf:RDF>
  </metadata>
  <defs
     id="defs905" />
  <sodipodi:namedview
     pagecolor="#ffffff"
     bordercolor="#666666"
     borderopacity="1"
     objecttolerance="10"
     gridtolerance="10"
     guidetolerance="10"
     inkscape:pageopacity="0"
     inkscape:pageshadow="2"
     inkscape:window-width="1280"
     inkscape:window-height="755"
     id="namedview903"
     showgrid="false"
     inkscape:zoom="1.8983359"
     inkscape:cx="73.692247"
     inkscape:cy="85.45868"
     inkscape:window-x="0"
     inkscape:window-y="23"
     inkscape:window-maximized="0"
     inkscape:current-layer="g2133"
     inkscape:document-rotation="0" />
  <g
     inkscape:groupmode="layer"
     inkscape:label="Image"
     id="g909">
    <g
       id="g2133">
      <path
         id="path2128"
         style="opacity:1;fill:#ffffff;fill-opacity:1;stroke-width:5.97291"
         d="m 100.10938,56.095703 c -8.119812,0.222549 -15.97389,3.859833 -21.686207,9.582835 -2.659751,2.717898 -5.056311,5.726512 -6.966544,9.019399 -0.58086,1.06008 -1.223337,2.439358 -0.480598,3.568903 1.189901,1.317145 3.009974,1.750135 4.567806,2.48271 5.659428,2.554671 11.222927,5.321641 16.739366,8.170372 0.625897,0.409927 1.424566,0.715054 1.865235,1.316406 -0.466749,1.605139 -1.336301,3.061039 -1.984376,4.597656 -6.177715,-3.158435 -12.215927,-6.690078 -18.795353,-8.96882 -3.129548,-1.090121 -6.518867,-1.576827 -9.798579,-0.932927 -2.996702,0.452266 -6.013383,1.185834 -8.602001,2.825942 -4.792157,2.938201 -8.721417,7.263086 -11.280629,12.261351 -2.132681,4.24246 -2.645202,9.11494 -2.425673,13.80326 0.214239,4.62431 2.045755,9.03408 4.492662,12.90899 3.426395,5.31046 8.683417,9.7516 14.981839,11.05924 2.709446,0.52755 5.489321,0.32554 8.233444,0.42951 25.191344,0.26679 50.384538,0.0857 75.576668,0.0784 1.42135,-0.0334 2.87454,0.0575 4.27601,-0.0533 2.46998,-1.28858 5.01299,-2.58498 6.91898,-4.67332 3.14757,-3.26012 5.00257,-7.7144 5.06314,-12.24972 0.16984,-3.91787 -0.88647,-7.91241 -3.22984,-11.08541 -3.14683,-4.49031 -8.51291,-7.53882 -14.06767,-7.27549 -2.51986,0.009 -5.33878,0.41784 -7.07392,2.44032 -1.52753,1.7448 -2.26046,4.00358 -3.5154,5.93175 -0.74529,1.265 -1.52743,2.5104 -2.39235,3.69751 -1.27876,-0.98379 -2.45645,-2.08863 -3.66601,-3.1543 2.53182,-3.88318 4.42832,-8.17976 5.70999,-12.630732 1.26459,-4.893145 1.23067,-10.050984 0.51145,-15.027642 -0.88198,-6.10304 -3.97366,-11.682402 -7.8618,-16.38373 -3.73864,-4.509204 -8.61232,-8.13178 -14.17595,-10.04059 -3.49791,-1.239782 -7.22584,-1.802977 -10.93369,-1.698553 z" />
      <path
         style="fill:#000000;stroke-width:0.681828"
         d="M 56.318793,143.79407 C 37.42254,138.69647 29.30896,115.00203 37.786754,96.733789 42.364351,86.869822 50.449759,80.541395 61.759263,77.970575 c 1.277242,-0.290336 1.91121,-1.066386 2.475919,-3.030808 0.41749,-1.4523 1.967137,-4.581133 3.44366,-6.952965 13.800729,-22.168972 43.202388,-25.534219 60.751028,-6.953426 7.76557,8.222302 11.64307,17.863262 11.64307,28.949121 v 5.58168 l 4.85144,0.328137 c 8.7926,0.594706 16.25849,5.665486 20.09705,13.649756 1.78877,3.72068 2.71207,4.54243 2.71207,11.28536 0,6.80741 -0.53995,7.09254 -2.3305,10.49842 -2.45873,4.67687 -6.81329,9.52852 -11.05076,11.90672 l -4.53493,1.35187 -43.94828,0.68186 -43.462615,0.17002 z m 93.716447,-8.20622 c 4.01664,-1.91917 5.85305,-3.8202 7.71918,-7.99085 5.47171,-12.22875 -4.55036,-25.45837 -17.15408,-22.6442 -2.29898,0.51333 -3.24645,1.10073 -3.583,2.22141 -0.59277,1.97381 -5.5638,10.27956 -6.13605,10.25231 -0.24122,-0.0114 -1.74007,-1.20678 -3.33077,-2.65619 l -2.8922,-2.63532 2.01924,-3.15329 c 3.09945,-4.8402 4.85588,-10.232528 5.2476,-16.11039 0.63807,-9.574286 -2.121,-17.52311 -8.62638,-24.852421 C 112.1254,55.430365 94.521686,54.195153 81.157088,65.061926 77.809267,67.784044 72.32926,75.316261 72.32926,77.195693 c 0,0.487903 1.370751,1.250869 3.046113,1.695482 2.443226,0.648389 19.676445,9.176534 20.826639,10.306405 0.162406,0.159541 -0.508936,2.01829 -1.491877,4.130553 l -1.787164,3.840481 -9.134587,-4.838152 c -10.76539,-5.701908 -14.846671,-6.811417 -20.841277,-5.665763 -5.224095,0.998398 -8.552516,2.775447 -12.515,6.681775 -3.863038,3.808294 -6.308583,8.475026 -7.326376,13.980646 -2.302441,12.45473 6.03191,26.04662 17.75656,28.95789 1.375492,0.34154 21.329652,0.6457 44.342579,0.67593 40.7548,0.0534 41.91932,0.0178 44.83037,-1.37309 z"
         id="path913"
         sodipodi:nodetypes="ssssssscssssscccssssssscsssssssscssssscs" />
    </g>
  </g>
</svg>
